<?xml version="1.0" standalone="no"?>
<!DOCTYPE svg PUBLIC "-//W3C//DTD SVG 20010904//EN"
 "http://www.w3.org/TR/2001/REC-SVG-20010904/DTD/svg10.dtd">
<svg version="1.0" xmlns="http://www.w3.org/2000/svg"
 width="736.000000pt" height="980.000000pt" viewBox="0 0 736.000000 980.000000"
 preserveAspectRatio="xMidYMid meet">
<metadata>
Created by potrace 1.16, written by Peter Selinger 2001-2019
</metadata>
<g transform="translate(0.000000,980.000000) scale(0.100000,-0.100000)"
fill="#000000" stroke="none">
<path d="M3445 9794 c-351 -28 -631 -84 -941 -189 -1181 -397 -2084 -1374
-2388 -2583 -80 -319 -111 -597 -103 -939 4 -196 9 -264 31 -387 125 -713 503
-1619 1104 -2646 594 -1014 1347 -2036 1936 -2626 302 -302 500 -437 618 -421
371 50 1467 1342 2330 2747 711 1157 1152 2175 1289 2975 27 155 37 534 19
727 -138 1522 -1201 2801 -2670 3213 -162 45 -390 90 -560 110 -129 16 -556
27 -665 19z m542 -1239 c527 -69 1008 -299 1384 -662 412 -398 653 -873 740
-1458 18 -119 18 -490 0 -615 -75 -538 -298 -1005 -661 -1383 -371 -388 -830
-632 -1365 -728 -169 -30 -528 -38 -705 -15 -574 75 -1072 327 -1472 745 -284
296 -498 678 -597 1064 -291 1134 241 2299 1286 2816 264 131 516 204 838 244
88 11 444 6 552 -8z"/>
<path d="M2180 7265 l0 -455 80 0 80 0 0 136 0 136 34 34 34 34 1272 0 1272 0
34 -34 34 -34 0 -136 0 -136 80 0 80 0 0 455 0 455 -1500 0 -1500 0 0 -455z"/>
<path d="M2504 7029 c-16 -5 -41 -20 -55 -35 l-24 -26 -3 -314 -3 -314 -84 0
-85 0 0 190 0 190 -130 0 -130 0 0 -315 0 -315 215 0 215 0 0 -85 0 -85 -67 0
c-79 0 -109 -13 -140 -59 l-23 -34 0 -488 0 -489 1490 0 1491 0 -3 500 -3 500
-33 32 c-30 31 -37 33 -112 36 l-80 4 0 84 0 84 215 0 215 0 0 315 0 315 -130
0 -130 0 0 -190 0 -190 -85 0 -85 0 0 309 0 309 -26 31 c-14 17 -42 35 -62 41
-46 13 -2303 12 -2348 -1z m2139 -183 c18 -7 41 -23 52 -36 19 -21 20 -38 23
-456 l3 -434 -1041 0 -1041 0 3 434 c3 418 4 435 23 456 45 51 16 49 1013 50
765 0 938 -2 965 -14z m-353 -1256 l0 -60 -610 0 -610 0 0 60 0 60 610 0 610
0 0 -60z m0 -250 l0 -60 -610 0 -610 0 0 60 0 60 610 0 610 0 0 -60z m-1420
-115 c45 -23 65 -69 51 -116 -18 -61 -41 -69 -199 -69 -136 0 -140 1 -165 25
-47 48 -40 121 17 156 26 16 51 19 149 19 86 0 126 -4 147 -15z m1911 -1 c35
-18 61 -70 52 -105 -3 -13 -17 -36 -31 -51 -26 -28 -26 -28 -164 -28 -157 0
-179 7 -198 66 -15 46 2 89 44 115 42 25 250 28 297 3z m-491 -129 l0 -55
-610 0 -610 0 0 55 0 55 610 0 610 0 0 -55z"/>
<path d="M2190 4675 l0 -105 183 -2 182 -3 5 -138 5 -139 32 -28 c41 -37 82
-43 279 -38 128 2 164 6 182 20 51 35 57 55 60 196 l4 132 558 0 558 0 4 -132
c3 -141 9 -161 60 -196 18 -14 54 -18 182 -20 197 -5 238 1 279 38 l32 28 5
139 5 138 183 3 182 2 0 105 0 105 -1490 0 -1490 0 0 -105z"/>
</g>
</svg>
